# xmcd CD database file
#
# Track frame offsets:
#	150
#	21327
#	44122
#	60335
#	79682
#	100077
#	122517
#	142230
#	160227
#	181772
#	206215
#	228367
#
# Disc length: 3350 seconds
#
# Revision: 1
# Processed by: cddbd v1.5.1PL2 Copyright (c) Steve Scherf et al.
# Submitted via: CDex 1.51
#
DISCID=a20d140c
DTITLE=VariousArtist - Best of Jazzy Vocal
DYEAR=2004
DGENRE=Jazz
TTITLE0=Masa masa - January Christy
TTITLE1=Kisah Kehidupan - Karimata ft Harvey Malaiholo
TTITLE2=Semurni Kasih - Dian Pramana Poetra
TTITLE3=Life is too short to worry - Bhaskara
TTITLE4=Pesimis - Jakarta Power Band
TTITLE5=Untuk apa - Yopie Latul
TTITLE6=Tiada Kusadari - Drakhma
TTITLE7=Buat Kamu - Black Fantasy
TTITLE8=Bayang bayang jingga - Kiki Maria
TTITLE9=Dunia (Semakin Kelam) - Indra Lesmana
TTITLE10=Dunia yg Kudamba - Vina Panduwinata
TTITLE11=Easy Life - Utha Likumahuwa
EXTD=YEAR: 2004
EXTT0=
EXTT1=
EXTT2=
EXTT3=
EXTT4=
EXTT5=
EXTT6=
EXTT7=
EXTT8=
EXTT9=
EXTT10=
EXTT11=
PLAYORDER=
